<?xml version="1.0" encoding="utf-8"?>
<!-- Generator: Adobe Illustrator 19.0.0, SVG Export Plug-In . SVG Version: 6.00 Build 0)  -->
<svg version="1.1" xmlns="http://www.w3.org/2000/svg" xmlns:xlink="http://www.w3.org/1999/xlink" x="0px" y="0px"
	 viewBox="160 -160 512 512" style="enable-background:new 160 -160 512 512;" xml:space="preserve">
<style type="text/css">
	.st0{fill:#00575E;}
</style>
<g id="Layer_1">
	<g>
		<g>
			<g>
				<path class="st0" d="M445.8,55.5c0-2.1-1.7-3.7-3.7-3.7s-3.7,1.7-3.7,3.7v7.5c0,2.1,1.7,3.7,3.7,3.7s3.7-1.7,3.7-3.7V55.5z"/>
				<path class="st0" d="M442.1,96.5c-2.1,0-3.7,1.7-3.7,3.7v14.9c0,2.1,1.7,3.7,3.7,3.7c2.1,0,3.7-1.7,3.7-3.7v-14.9
					C445.8,98.1,444.1,96.5,442.1,96.5z"/>
				<path class="st0" d="M460.7,10.8c0-2.1-1.7-3.7-3.7-3.7s-3.7,1.7-3.7,3.7v7.5c0,2.1,1.7,3.7,3.7,3.7s3.7-1.7,3.7-3.7V10.8z"/>
				<path class="st0" d="M445.8,33.1c0-2.1-1.7-3.7-3.7-3.7s-3.7,1.7-3.7,3.7v7.5c0,2.1,1.7,3.7,3.7,3.7s3.7-1.7,3.7-3.7V33.1z"/>
				<path class="st0" d="M445.8,77.8c0-2.1-1.7-3.7-3.7-3.7s-3.7,1.7-3.7,3.7v7.5c0,2.1,1.7,3.7,3.7,3.7c2.1,0,3.7-1.7,3.7-3.7
					L445.8,77.8L445.8,77.8z"/>
				<path class="st0" d="M460.7,33.1c0-2.1-1.7-3.7-3.7-3.7s-3.7,1.7-3.7,3.7v7.5c0,2.1,1.7,3.7,3.7,3.7s3.7-1.7,3.7-3.7V33.1z"/>
				<path class="st0" d="M430.9,10.8c0-2.1-1.7-3.7-3.7-3.7c-2.1,0-3.7,1.7-3.7,3.7v7.5c0,2.1,1.7,3.7,3.7,3.7
					c2.1,0,3.7-1.7,3.7-3.7V10.8z"/>
				<path class="st0" d="M445.8,10.8c0-2.1-1.7-3.7-3.7-3.7s-3.7,1.7-3.7,3.7v7.5c0,2.1,1.7,3.7,3.7,3.7s3.7-1.7,3.7-3.7V10.8z"/>
				<path class="st0" d="M460.7-26.5V-34c0-2.1-1.7-3.7-3.7-3.7s-3.7,1.7-3.7,3.7v7.5c0,2.1,1.7,3.7,3.7,3.7S460.7-24.5,460.7-26.5z
					"/>
				<path class="st0" d="M430.9,33.1c0-2.1-1.7-3.7-3.7-3.7c-2.1,0-3.7,1.7-3.7,3.7v7.5c0,2.1,1.7,3.7,3.7,3.7
					c2.1,0,3.7-1.7,3.7-3.7V33.1z"/>
				<path class="st0" d="M475.6-34c0-2.1-1.7-3.7-3.7-3.7s-3.7,1.7-3.7,3.7v7.5c0,2.1,1.7,3.7,3.7,3.7s3.7-1.7,3.7-3.7V-34z"/>
				<path class="st0" d="M427.2,51.8c-2.1,0-3.7,1.7-3.7,3.7v7.5c0,2.1,1.7,3.7,3.7,3.7c2.1,0,3.7-1.7,3.7-3.7v-7.5
					C430.9,53.4,429.2,51.8,427.2,51.8z"/>
				<path class="st0" d="M490.5,77.8c0-2.1-1.7-3.7-3.7-3.7s-3.7,1.7-3.7,3.7v7.5c0,2.1,1.7,3.7,3.7,3.7c2.1,0,3.7-1.7,3.7-3.7
					L490.5,77.8L490.5,77.8z"/>
				<path class="st0" d="M486.8,96.5c-2.1,0-3.7,1.7-3.7,3.7v14.9c0,2.1,1.7,3.7,3.7,3.7c2.1,0,3.7-1.7,3.7-3.7v-14.9
					C490.5,98.1,488.9,96.5,486.8,96.5z"/>
				<path class="st0" d="M501.7,51.8c-2.1,0-3.7,1.7-3.7,3.7v7.5c0,2.1,1.7,3.7,3.7,3.7s3.7-1.7,3.7-3.7v-7.5
					C505.4,53.4,503.8,51.8,501.7,51.8z"/>
				<path class="st0" d="M442.1-22.8c2.1,0,3.7-1.7,3.7-3.7v-15.7l37.3-9.3v62.3c0,1.6,1,2.9,2.4,3.5l27.4,10.3v38.4
					c0,2.1,1.7,3.7,3.7,3.7c2.1,0,3.7-1.7,3.7-3.7v-41c0-1.6-1-2.9-2.4-3.5L490.5,8.2v-72c0-2.1-1.7-3.7-3.7-3.7
					c-2.1,0-3.7,1.7-3.7,3.7v4.5l-41.9,10.5c-1.7,0.4-2.8,1.9-2.8,3.6v18.6C438.4-24.5,440-22.8,442.1-22.8z"/>
				<path class="st0" d="M505.4,33.1c0-2.1-1.7-3.7-3.7-3.7s-3.7,1.7-3.7,3.7v7.5c0,2.1,1.7,3.7,3.7,3.7s3.7-1.7,3.7-3.7V33.1z"/>
				<path class="st0" d="M490.5,33.1c0-2.1-1.7-3.7-3.7-3.7s-3.7,1.7-3.7,3.7v7.5c0,2.1,1.7,3.7,3.7,3.7s3.7-1.7,3.7-3.7V33.1z"/>
				<path class="st0" d="M460.7,77.8c0-2.1-1.7-3.7-3.7-3.7s-3.7,1.7-3.7,3.7v7.5c0,2.1,1.7,3.7,3.7,3.7s3.7-1.7,3.7-3.7V77.8z"/>
				<path class="st0" d="M490.5,55.5c0-2.1-1.7-3.7-3.7-3.7s-3.7,1.7-3.7,3.7v7.5c0,2.1,1.7,3.7,3.7,3.7s3.7-1.7,3.7-3.7V55.5z"/>
				<path class="st0" d="M457,96.5c-2.1,0-3.7,1.7-3.7,3.7v14.9c0,2.1,1.7,3.7,3.7,3.7s3.7-1.7,3.7-3.7v-14.9
					C460.7,98.1,459.1,96.5,457,96.5z"/>
				<path class="st0" d="M460.7,55.5c0-2.1-1.7-3.7-3.7-3.7s-3.7,1.7-3.7,3.7v7.5c0,2.1,1.7,3.7,3.7,3.7s3.7-1.7,3.7-3.7V55.5z"/>
				<path class="st0" d="M471.9,118.8c2.1,0,3.7-1.7,3.7-3.7V-4.2c0-1.7-1.2-3.2-2.8-3.6l-59.6-14.9c-1.1-0.3-2.3,0-3.2,0.7
					c-0.9,0.7-1.4,1.8-1.4,2.9v82c0,2.1,1.7,3.7,3.7,3.7s3.7-1.7,3.7-3.7v-77.2l52.2,13v116.4C468.2,117.2,469.8,118.8,471.9,118.8z
					"/>
				<path class="st0" d="M386.2-11.6c0-2.1-1.7-3.7-3.7-3.7s-3.7,1.7-3.7,3.7v7.5c0,2.1,1.7,3.7,3.7,3.7s3.7-1.7,3.7-3.7V-11.6z"/>
				<path class="st0" d="M386.2-34c0-2.1-1.7-3.7-3.7-3.7s-3.7,1.7-3.7,3.7v7.5c0,2.1,1.7,3.7,3.7,3.7s3.7-1.7,3.7-3.7V-34z"/>
				<path class="st0" d="M356.4,77.8c0-2.1-1.7-3.7-3.7-3.7c-2.1,0-3.7,1.7-3.7,3.7v7.5c0,2.1,1.7,3.7,3.7,3.7s3.7-1.7,3.7-3.7
					L356.4,77.8L356.4,77.8z"/>
				<path class="st0" d="M322.8,44.3c2.1,0,3.7-1.7,3.7-3.7V21.9h37.3v93.2c0,2.1,1.7,3.7,3.7,3.7s3.7-1.7,3.7-3.7V18.2
					c0-2.1-1.7-3.7-3.7-3.7h-44.7c-2.1,0-3.7,1.7-3.7,3.7v22.4C319.1,42.6,320.8,44.3,322.8,44.3z"/>
				<path class="st0" d="M363.8-11.6v7.5c0,2.1,1.7,3.7,3.7,3.7s3.7-1.7,3.7-3.7v-7.5c0-2.1-1.7-3.7-3.7-3.7
					C365.5-15.3,363.8-13.7,363.8-11.6z"/>
				<path class="st0" d="M386.2-56.3c0-2.1-1.7-3.7-3.7-3.7s-3.7,1.7-3.7,3.7v7.5c0,2.1,1.7,3.7,3.7,3.7s3.7-1.7,3.7-3.7V-56.3z"/>
				<path class="st0" d="M352.6,96.5c-2.1,0-3.7,1.7-3.7,3.7v14.9c0,2.1,1.7,3.7,3.7,3.7s3.7-1.7,3.7-3.7v-14.9
					C356.4,98.1,354.7,96.5,352.6,96.5z"/>
				<path class="st0" d="M524.1,126.3h-7.5v-22.9c6.4-1.7,11.2-7.5,11.2-14.4c0-8.2-6.7-14.9-14.9-14.9c-8.2,0-14.9,6.7-14.9,14.9
					c0,6.9,4.8,12.7,11.2,14.4v22.9H416V111c8.5-1.7,14.9-9.3,14.9-18.3c0-10.3-8.4-18.6-18.6-18.6c-10.3,0-18.6,8.4-18.6,18.6
					c0,9,6.4,16.5,14.9,18.3v15.3h-82V88.6c8.5-1.7,14.9-9.3,14.9-18.3c0-10.3-8.4-18.6-18.6-18.6c-10.3,0-18.6,8.4-18.6,18.6
					c0,9,6.4,16.5,14.9,18.3v37.6h-11.2c-2.1,0-3.7,1.7-3.7,3.7c0,2.1,1.7,3.7,3.7,3.7h216.2c2.1,0,3.7-1.7,3.7-3.7
					C527.8,128,526.1,126.3,524.1,126.3z M311.6,70.4c0-6.2,5-11.2,11.2-11.2s11.2,5,11.2,11.2s-5,11.2-11.2,11.2
					S311.6,76.5,311.6,70.4z M401.1,92.7c0-6.2,5-11.2,11.2-11.2s11.2,5,11.2,11.2s-5,11.2-11.2,11.2S401.1,98.9,401.1,92.7z
					 M505.4,89c0-4.1,3.3-7.5,7.5-7.5c4.1,0,7.5,3.3,7.5,7.5c0,4.1-3.3,7.5-7.5,7.5C508.8,96.5,505.4,93.1,505.4,89z"/>
				<path class="st0" d="M334,100.2v14.9c0,2.1,1.7,3.7,3.7,3.7s3.7-1.7,3.7-3.7v-14.9c0-2.1-1.7-3.7-3.7-3.7S334,98.1,334,100.2z"
					/>
				<path class="st0" d="M356.4,33.1c0-2.1-1.7-3.7-3.7-3.7c-2.1,0-3.7,1.7-3.7,3.7v7.5c0,2.1,1.7,3.7,3.7,3.7
					c2.1,0,3.7-1.7,3.7-3.7V33.1z"/>
				<path class="st0" d="M356.4,55.5c0-2.1-1.7-3.7-3.7-3.7c-2.1,0-3.7,1.7-3.7,3.7v7.5c0,2.1,1.7,3.7,3.7,3.7
					c2.1,0,3.7-1.7,3.7-3.7V55.5z"/>
				<path class="st0" d="M334,33.1v7.5c0,2.1,1.7,3.7,3.7,3.7s3.7-1.7,3.7-3.7v-7.5c0-2.1-1.7-3.7-3.7-3.7S334,31.1,334,33.1z"/>
				<path class="st0" d="M386.2,55.5c0-2.1-1.7-3.7-3.7-3.7s-3.7,1.7-3.7,3.7v7.5c0,2.1,1.7,3.7,3.7,3.7s3.7-1.7,3.7-3.7V55.5z"/>
				<path class="st0" d="M401.1,10.8c0-2.1-1.7-3.7-3.7-3.7s-3.7,1.7-3.7,3.7v7.5c0,2.1,1.7,3.7,3.7,3.7s3.7-1.7,3.7-3.7V10.8z"/>
				<path class="st0" d="M401.1-11.6c0-2.1-1.7-3.7-3.7-3.7s-3.7,1.7-3.7,3.7v7.5c0,2.1,1.7,3.7,3.7,3.7s3.7-1.7,3.7-3.7V-11.6z"/>
				<path class="st0" d="M401.1,33.1c0-2.1-1.7-3.7-3.7-3.7s-3.7,1.7-3.7,3.7v7.5c0,2.1,1.7,3.7,3.7,3.7s3.7-1.7,3.7-3.7V33.1z"/>
				<path class="st0" d="M397.4,51.8c-2.1,0-3.7,1.7-3.7,3.7v7.5c0,2.1,1.7,3.7,3.7,3.7s3.7-1.7,3.7-3.7v-7.5
					C401.1,53.4,399.4,51.8,397.4,51.8z"/>
				<path class="st0" d="M401.1-34c0-2.1-1.7-3.7-3.7-3.7s-3.7,1.7-3.7,3.7v7.5c0,2.1,1.7,3.7,3.7,3.7s3.7-1.7,3.7-3.7V-34z"/>
				<path class="st0" d="M386.2,77.8c0-2.1-1.7-3.7-3.7-3.7s-3.7,1.7-3.7,3.7v7.5c0,2.1,1.7,3.7,3.7,3.7s3.7-1.7,3.7-3.7V77.8z"/>
				<path class="st0" d="M352.6,7c2.1,0,3.7-1.7,3.7-3.7v-27.5l12.8-6.4c1.3-0.6,2.1-1.9,2.1-3.3v-31.2l18.6-9.3l18.6,9.3V-34
					c0,2.1,1.7,3.7,3.7,3.7s3.7-1.7,3.7-3.7v-33.5c0-1.4-0.8-2.7-2.1-3.3L393.6-81v-5.2c0-2.1-1.7-3.7-3.7-3.7s-3.7,1.7-3.7,3.7v5.2
					l-20.3,10.1c-1.3,0.6-2.1,1.9-2.1,3.3v31.2L351-29.9c-1.3,0.6-2.1,1.9-2.1,3.3V3.3C348.9,5.4,350.6,7,352.6,7z"/>
				<path class="st0" d="M386.2,33.1c0-2.1-1.7-3.7-3.7-3.7s-3.7,1.7-3.7,3.7v7.5c0,2.1,1.7,3.7,3.7,3.7s3.7-1.7,3.7-3.7V33.1z"/>
				<path class="st0" d="M382.5,96.5c-2.1,0-3.7,1.7-3.7,3.7v14.9c0,2.1,1.7,3.7,3.7,3.7s3.7-1.7,3.7-3.7v-14.9
					C386.2,98.1,384.5,96.5,382.5,96.5z"/>
				<path class="st0" d="M401.1-56.3c0-2.1-1.7-3.7-3.7-3.7s-3.7,1.7-3.7,3.7v7.5c0,2.1,1.7,3.7,3.7,3.7s3.7-1.7,3.7-3.7V-56.3z"/>
				<path class="st0" d="M386.2,10.8c0-2.1-1.7-3.7-3.7-3.7s-3.7,1.7-3.7,3.7v7.5c0,2.1,1.7,3.7,3.7,3.7s3.7-1.7,3.7-3.7V10.8z"/>
			</g>
		</g>
	</g>
	<path class="st0" d="M283.3,144.1L283.3,144.1c-24.6-32.8-36.9-78.1-33.8-124.5c3.1-46.4,21.3-89.4,50-118.1
		c32.5-32.5,75.8-50.4,121.7-50.4s89.2,17.9,121.7,50.4c60.3,60.3,67.8,173.7,16,242.8L421.1,343.2L283.3,144.1z M421.1,328.3
		l130.8-188.9C601.4,73.4,594.4-35,536.9-92.5c-30.9-30.9-72-47.9-115.8-47.9c-43.7,0-84.8,17-115.7,47.9
		C247.9-35,240.8,73.2,290.1,139.1L421.1,328.3z"/>
</g>
<g id="Layer_2">
</g>
</svg>
